<svg width="111" height="30" viewBox="0 0 111 30" fill="none" xmlns="http://www.w3.org/2000/svg">
<g clip-path="url(#clip0_86_2291)">
<g clip-path="url(#clip1_86_2291)">
<g clip-path="url(#clip2_86_2291)">
<path fill-rule="evenodd" clip-rule="evenodd" d="M13.1729 12.0871C13.1729 12.0871 20.2666 2.77326 28.8532 14.9195C26.7034 16.4505 22.1996 19.5381 22.1996 19.5381C22.1996 19.5381 23.1054 10.5178 13.1792 12.0871" fill="#0560AB"/>
<path fill-rule="evenodd" clip-rule="evenodd" d="M15.6803 16.7504C15.6803 16.7504 8.58655 26.0578 0 13.918C2.14983 12.387 6.66 9.29919 6.66 9.29919C6.66 9.29919 5.74776 18.3197 15.6803 16.7567" fill="#0560AB"/>
<path fill-rule="evenodd" clip-rule="evenodd" d="M16.7592 13.165C16.7592 13.165 26.073 20.2589 13.9204 28.839C12.3893 26.6892 9.30176 22.1854 9.30176 22.1854C9.30176 22.1854 18.3221 23.0976 16.7528 13.165" fill="#0560AB"/>
<path fill-rule="evenodd" clip-rule="evenodd" d="M12.1006 15.6722C12.1006 15.6722 2.78677 8.57831 14.9394 -0.00186157C16.464 2.14159 19.558 6.65169 19.558 6.65169C19.558 6.65169 10.5377 5.74594 12.1006 15.6722Z" fill="#00A874"/>
<path fill-rule="evenodd" clip-rule="evenodd" d="M42.0464 8.78888C43.4307 8.47629 44.126 7.69795 44.126 6.45398C44.126 5.21 43.4307 4.43817 42.0464 4.12558V8.78888ZM39.6159 4.12558C38.2315 4.43817 37.5426 5.21638 37.5426 6.45398C37.5426 7.69157 38.2315 8.47629 39.6159 8.78888V4.12558ZM39.6159 10.4093C38.1805 10.2945 37.096 9.88605 36.3624 9.19071C35.6288 8.50174 35.2588 7.5895 35.2588 6.45398C35.2588 5.31845 35.6224 4.41257 36.356 3.7236C37.0896 3.03464 38.1741 2.62642 39.6159 2.50521V1.86728H42.04V2.50521C43.4881 2.62642 44.579 3.03464 45.3062 3.7236C46.0334 4.41257 46.3971 5.32483 46.3971 6.45398C46.3971 7.58312 46.0334 8.49536 45.2998 9.19071C44.5662 9.87967 43.4817 10.2881 42.04 10.4093V11.6021H39.6159V10.4093Z" fill="#0560AB"/>
<path fill-rule="evenodd" clip-rule="evenodd" d="M68.7819 1.86728V11.6085H66.3706V7.5895H63.0979V11.6085H60.6865V1.86728H63.0979V5.66294H66.3706V1.86728H68.7819Z" fill="#0560AB"/>
<path fill-rule="evenodd" clip-rule="evenodd" d="M78.0121 7.90841L77.9929 8.00417C77.7761 9.15882 77.1955 9.71382 76.2259 9.71382C75.6262 9.71382 75.1733 9.51606 74.8416 9.12054C74.5035 8.71227 74.3376 7.91473 74.3376 6.75369C74.3376 4.73786 74.9373 3.75547 76.1621 3.75547C77.2274 3.75547 77.7569 4.38065 77.7952 5.66927V5.78421L80.6531 5.62473L80.6404 5.50978C80.315 2.99634 78.8223 1.7269 76.2195 1.7269C74.7204 1.7269 73.5147 2.20533 72.6471 3.14309C71.7859 4.07447 71.3457 5.28662 71.3457 6.74113C71.3457 8.29768 71.7986 9.53507 72.6917 10.4218C73.5912 11.3085 74.7714 11.7615 76.2004 11.7615C77.3678 11.7615 78.3693 11.4554 79.1795 10.8493C79.9897 10.2433 80.4809 9.34388 80.6404 8.17647L80.6595 8.06152L78.0185 7.91479L78.0121 7.90841Z" fill="#0560AB"/>
<path fill-rule="evenodd" clip-rule="evenodd" d="M90.0304 1.88022V3.80678H86.9875V11.6087H84.506V3.80678H81.5332V1.88022H90.0304Z" fill="#0560AB"/>
<path fill-rule="evenodd" clip-rule="evenodd" d="M94.121 7.81301H96.3601L95.2501 4.40001L94.121 7.81301ZM96.947 1.88022L100.258 11.6087H97.5977L96.947 9.60566H93.5277L92.8643 11.6087H90.1084L93.4958 1.88022H96.947Z" fill="#0560AB"/>
<path fill-rule="evenodd" clip-rule="evenodd" d="M104.921 6.22443H106.599C107.237 6.22443 107.69 6.09677 107.945 5.82884C108.2 5.56728 108.334 5.26751 108.334 4.92941C108.334 4.53389 108.194 4.22132 107.901 3.98529C107.613 3.74925 107.173 3.63439 106.586 3.63439H104.915V6.21804L104.921 6.22443ZM105.011 7.99149V11.6086H102.389V1.86731H106.727C107.696 1.86731 108.436 1.95658 108.947 2.14158C109.457 2.32658 109.916 2.65195 110.325 3.12401C110.727 3.59608 110.931 4.1702 110.931 4.85917C110.931 5.33762 110.822 5.80981 110.612 6.26274C110.395 6.72207 110.089 7.07925 109.699 7.3408C109.304 7.60235 108.928 7.77447 108.558 7.86378C108.188 7.95309 107.613 7.99149 106.829 7.99149H105.017H105.011Z" fill="#0560AB"/>
<path fill-rule="evenodd" clip-rule="evenodd" d="M54.4407 1.86728L51.1043 7.14301V1.86728H48.6865V11.6085H51.3658L55.3082 5.47791V11.6085H57.7324V1.86728H54.4407Z" fill="#0560AB"/>
<path fill-rule="evenodd" clip-rule="evenodd" d="M41.4451 15.6913L38.1215 20.2525V15.6913H35.6846V25.4007H38.1215V23.1741L39.6078 21.1903L41.7258 25.4007H44.4625L41.2792 19.1617L43.8246 15.6913H41.4451Z" fill="#0560AB"/>
<path fill-rule="evenodd" clip-rule="evenodd" d="M65.9099 15.6848V25.4261H63.4984V17.6114H60.2258V25.4261H57.8145V15.6848H60.2258H63.4984H65.9099Z" fill="#0560AB"/>
<path fill-rule="evenodd" clip-rule="evenodd" d="M49.9491 21.624H52.1882L51.0782 18.2111L49.9491 21.624ZM52.7751 15.6913L56.086 25.4197H53.4258L52.7751 23.4167H49.3558L48.6924 25.4197H45.9365L49.3239 15.6913H52.7751Z" fill="#0560AB"/>
<path fill-rule="evenodd" clip-rule="evenodd" d="M92.8436 21.624H95.0828L93.9728 18.2111L92.8436 21.624ZM95.6697 15.6912L98.9805 25.4197H96.3204L95.6697 23.4166H92.2504L91.5869 25.4197H88.8311L92.2185 15.6912H95.6697Z" fill="#0560AB"/>
<path fill-rule="evenodd" clip-rule="evenodd" d="M88.4177 15.6783V17.5985H85.3684V25.4068H82.8868V17.5985H79.9141V15.6783H88.4177Z" fill="#0560AB"/>
<path fill-rule="evenodd" clip-rule="evenodd" d="M74.1789 15.6722L70.8489 20.9477V15.6722H68.4248V25.4068H71.1105L75.0529 19.2765V25.4068H77.4707V15.6722H74.1789Z" fill="#0560AB"/>
<path fill-rule="evenodd" clip-rule="evenodd" d="M107.192 15.6913H103.734L100.347 25.4197H103.103L103.766 23.4167L104.366 21.624L105.495 18.2111L106.605 21.624L107.185 23.4167L107.836 25.4197H110.496L107.192 15.6913Z" fill="#0560AB"/>
</g>
</g>
</g>
<defs>
<clipPath id="clip0_86_2291">
<rect width="111" height="29.3412" fill="white"/>
</clipPath>
<clipPath id="clip1_86_2291">
<rect width="111" height="29.3412" fill="white"/>
</clipPath>
<clipPath id="clip2_86_2291">
<rect width="111" height="29.3448" fill="white" transform="translate(0 -0.00161743)"/>
</clipPath>
</defs>
</svg>
