<svg width="81" height="72" viewBox="0 0 81 72" fill="none" xmlns="http://www.w3.org/2000/svg">
<path fill-rule="evenodd" clip-rule="evenodd" d="M39.5791 12.772C39.5791 12.772 47.0444 2.92317 56.1288 15.7851C53.8802 17.4041 49.1131 20.6421 49.1131 20.6421C49.1131 20.6421 50.0576 11.1081 39.5791 12.772Z" fill="#0560AB"/>
<path fill-rule="evenodd" clip-rule="evenodd" d="M42.2313 17.6739C42.2313 17.6739 34.766 27.5228 25.6816 14.6608C27.9302 13.0418 32.6973 9.80386 32.6973 9.80386C32.6973 9.80386 31.7528 19.3379 42.2313 17.6739Z" fill="#0560AB"/>
<path fill-rule="evenodd" clip-rule="evenodd" d="M43.3564 13.8964C43.3564 13.8964 53.2053 21.3617 40.3433 30.446C38.7243 28.1974 35.4863 23.4304 35.4863 23.4304C35.4863 23.4304 45.0204 24.3748 43.3564 13.8964Z" fill="#0560AB"/>
<path fill-rule="evenodd" clip-rule="evenodd" d="M38.4542 16.5497C38.4542 16.5497 28.6054 9.03935 41.4673 0C43.0863 2.24859 46.3243 7.01562 46.3243 7.01562C46.3243 7.01562 36.7902 6.07121 38.4542 16.5497Z" fill="#00A874"/>
<path d="M2.20707 70.2461L0.85791 67.6827H1.39757L2.43193 69.7064L3.33136 67.6827H3.82606L2.56684 70.381C2.38695 70.7857 2.20707 71.0106 2.07215 71.1005C1.93724 71.1905 1.71238 71.2355 1.48752 71.2355H1.39757V70.8307H1.57746C1.75735 70.8307 1.84729 70.7857 1.93724 70.7408C2.02718 70.6958 2.07215 70.5609 2.16209 70.381L2.20707 70.2461Z" fill="#0560AB"/>
<path d="M4.72583 71.2355V67.6827H7.42414V71.2355H6.97442V68.0874H5.26549V71.2355H4.72583Z" fill="#0560AB"/>
<path d="M9.35822 71.2355H8.86353V67.6827H10.2577C10.7074 67.6827 11.0222 67.7727 11.2021 67.9975C11.382 68.2224 11.5169 68.4472 11.5169 68.7171C11.5169 69.0319 11.4269 69.2567 11.2021 69.4816C10.9772 69.6615 10.7074 69.7964 10.3026 69.7964H9.35822V71.2355ZM9.35822 69.4366H10.2577C10.4825 69.4366 10.6624 69.3916 10.7973 69.2567C10.9322 69.1218 11.0222 68.9869 11.0222 68.762C11.0222 68.5822 10.9772 68.4472 10.8423 68.3123C10.7074 68.1774 10.5275 68.0875 10.3026 68.0875H9.35822V69.4366Z" fill="#0560AB"/>
<path d="M14.9344 71.2355H14.4397L14.0349 70.2011H12.5958L12.236 71.2355H11.8313L13.0905 67.6827H13.6302L14.9344 71.2355ZM13.945 69.8863L13.3603 68.1774L12.7757 69.8863H13.945Z" fill="#0560AB"/>
<path d="M15.8782 71.2355V67.6827H17.4072C17.812 67.6827 18.0818 67.7727 18.2617 67.9525C18.4416 68.1324 18.5315 68.3123 18.5315 68.5372C18.5315 68.9419 18.3067 69.2118 17.8569 69.3467C18.1268 69.3916 18.3516 69.5266 18.4865 69.7064C18.6215 69.8863 18.6664 70.0662 18.6664 70.2461C18.6664 70.5159 18.5765 70.7408 18.3516 70.9657C18.1268 71.1905 17.812 71.2355 17.4072 71.2355H15.8782ZM16.3729 69.2118H17.2273C17.5871 69.2118 17.812 69.1668 17.9469 69.0319C18.0818 68.8969 18.1268 68.762 18.1268 68.5821C18.1268 68.4023 18.0818 68.2673 17.9469 68.1774C17.812 68.0875 17.6321 68.0425 17.3622 68.0425H16.3729V69.2118ZM16.3729 70.8757H17.4072C17.6771 70.8757 17.8569 70.8307 17.9919 70.6958C18.1268 70.6059 18.2167 70.426 18.2167 70.2461C18.2167 70.1112 18.1717 70.0213 18.1268 69.8863C18.0818 69.7514 17.9919 69.7064 17.8569 69.6165C17.722 69.5715 17.5871 69.5266 17.3622 69.5266H16.3729V70.8757Z" fill="#0560AB"/>
<path d="M19.8367 71.2355H19.387L20.6911 67.6827H21.3657L22.6249 71.2355H22.0853L21.0509 68.1774H20.916L19.8367 71.2355Z" fill="#0560AB"/>
<path d="M25.6374 69.7064H24.5131L23.7486 71.2355H23.2539L24.0634 69.6165C23.7936 69.5265 23.6137 69.4366 23.5237 69.2567C23.3888 69.0768 23.3439 68.8969 23.3439 68.717C23.3439 68.4472 23.4338 68.2223 23.6587 67.9975C23.8835 67.7726 24.1983 67.7277 24.5581 67.7277H26.0871V71.2804H25.6374V69.7064ZM25.6374 68.0874H24.5581C24.3332 68.0874 24.1533 68.1324 24.0184 68.2673C23.8835 68.3573 23.8385 68.5372 23.8385 68.717C23.8385 68.8969 23.8835 69.0318 24.0184 69.1668C24.1533 69.3017 24.3332 69.3466 24.6031 69.3466H25.6374V68.0874Z" fill="#0560AB"/>
<path d="M28.7407 69.5715H27.9761V71.2355H27.4814V67.6827H27.9761V69.1668H28.7407C28.7856 68.717 28.9655 68.3573 29.2353 68.0425C29.5052 67.7726 29.865 67.6377 30.3147 67.6377C30.7644 67.6377 31.1691 67.8176 31.4839 68.1324C31.7987 68.4472 31.9337 68.8969 31.9337 69.4366C31.9337 69.9313 31.7987 70.381 31.4839 70.7408C31.2141 71.1006 30.8094 71.2804 30.3147 71.2804C29.82 71.2804 29.4152 71.1006 29.1454 70.7858C28.9205 70.471 28.7856 70.0662 28.7407 69.5715ZM30.3596 67.9975C30.0448 67.9975 29.775 68.1324 29.5502 68.4022C29.3253 68.6721 29.2353 69.0319 29.2353 69.4816C29.2353 69.8863 29.3253 70.2461 29.5502 70.5159C29.73 70.7858 29.9999 70.9207 30.3596 70.9207C30.7194 70.9207 30.9443 70.7858 31.1691 70.5159C31.349 70.2461 31.439 69.8863 31.439 69.4366C31.439 68.9419 31.349 68.5821 31.1242 68.3573C30.8993 68.1324 30.6745 67.9975 30.3596 67.9975Z" fill="#0560AB"/>
<path d="M37.3751 70.8757H37.9147V72H37.51L37.465 71.2355H33.1477V67.6827H33.6424V70.8307H35.0365V67.6827H35.5312V70.8307H36.9253V67.6827H37.42V70.8757H37.3751Z" fill="#0560AB"/>
<path d="M41.5125 71.2355H41.0178L40.613 70.2011H39.1739L38.8142 71.2355H38.4094L39.6686 67.6827H40.2083L41.5125 71.2355ZM40.5231 69.8863L39.9385 68.1774L39.3538 69.8863H40.5231Z" fill="#0560AB"/>
<path d="M44.5254 69.7064H43.4011L42.6365 71.2354H42.1418L42.9513 69.6164C42.6815 69.5265 42.5016 69.4366 42.4117 69.2567C42.2768 69.0768 42.2318 68.8969 42.2318 68.717C42.2318 68.4472 42.3217 68.2223 42.5466 67.9975C42.7715 67.7726 43.0863 67.7276 43.446 67.7276H44.9751V71.2804H44.5254V69.7064ZM44.5254 68.0874H43.446C43.2212 68.0874 43.0413 68.1324 42.9064 68.2673C42.7715 68.3572 42.7265 68.5371 42.7265 68.717C42.7265 68.8969 42.7715 69.0318 42.9064 69.1667C43.0413 69.3016 43.2212 69.3466 43.491 69.3466H44.5254V68.0874Z" fill="#0560AB"/>
<path d="M51.407 71.2355H50.8674L49.6981 69.3017L48.7986 70.2911V71.2355H48.304V67.6827H48.7986V69.7514L50.5525 67.6827H51.0922L50.0579 68.9419L51.407 71.2355Z" fill="#0560AB"/>
<path d="M53.6094 71.3254C53.1147 71.3254 52.71 71.1455 52.4402 70.7857C52.1703 70.426 52.0354 69.9763 52.0354 69.4816C52.0354 68.9419 52.1703 68.4922 52.4851 68.1324C52.7999 67.7726 53.1597 67.5927 53.6544 67.5927C54.1491 67.5927 54.5089 67.7726 54.8237 68.0874C55.0935 68.4472 55.2734 68.852 55.2734 69.3916C55.2734 69.8863 55.1385 70.336 54.8686 70.6958C54.5988 71.0556 54.1041 71.3254 53.6094 71.3254ZM53.6094 70.9656C53.9692 70.9656 54.1941 70.8307 54.4189 70.5609C54.5988 70.2911 54.6887 69.9313 54.6887 69.4816C54.6887 69.0318 54.5988 68.6721 54.3739 68.4022C54.194 68.1324 53.9242 68.0425 53.5644 68.0425C53.2496 68.0425 52.9798 68.1774 52.755 68.4472C52.5301 68.717 52.4402 69.0768 52.4402 69.5265C52.4402 69.9763 52.5301 70.336 52.755 70.6059C52.9798 70.8757 53.2946 70.9656 53.6094 70.9656Z" fill="#0560AB"/>
<path d="M60.1763 71.2355H59.6816V68.1324L58.4224 71.2355H58.1076L56.8483 68.1324V71.2355H56.4436V67.6827H57.1632L58.3324 70.5159L59.5017 67.6827H60.2212V71.2355H60.1763Z" fill="#0560AB"/>
<path d="M61.5706 71.2355V67.6827H64.2689V71.2355H63.7742V68.0875H62.0653V71.2355H61.5706Z" fill="#0560AB"/>
<path d="M68.3162 71.2355H67.8215L67.4168 70.2011H65.9777L65.6179 71.2355H65.2131L66.4723 67.6827H67.012L68.3162 71.2355ZM67.3268 69.8863L66.7422 68.1774L66.1575 69.8863H67.3268Z" fill="#0560AB"/>
<path d="M72.0492 71.2355H71.5546V69.5715H69.7557V71.2355H69.261V67.6827H69.7557V69.1668H71.5546V67.6827H72.0492V71.2355Z" fill="#0560AB"/>
<path d="M73.9373 70.9656V71.2804H73.4426V67.7277H73.9373V70.0212C73.9373 70.1561 73.9373 70.336 73.9373 70.4709C74.0722 70.2461 74.2521 70.0212 74.432 69.7964L75.8261 68.0874V67.7277H76.3208V71.2804H75.7812V69.2117C75.7812 69.0768 75.7812 68.852 75.7812 68.5821C75.6912 68.762 75.5113 68.9869 75.2865 69.2567L73.9373 70.9656Z" fill="#0560AB"/>
<path d="M79.7841 69.7064H78.6598L77.8953 71.2354H77.4006L78.2101 69.6164C77.9403 69.5265 77.7604 69.4366 77.6705 69.2567C77.5355 69.0768 77.4906 68.8969 77.4906 68.717C77.4906 68.4472 77.5805 68.2223 77.8054 67.9975C78.0302 67.7726 78.345 67.7276 78.7048 67.7276H80.2339V71.2804H79.7841V69.7064ZM79.7841 68.0874H78.7048C78.48 68.0874 78.3001 68.1324 78.1652 68.2673C78.0302 68.3572 77.9853 68.5371 77.9853 68.717C77.9853 68.8969 78.0302 69.0318 78.1652 69.1667C78.3001 69.3016 78.48 69.3466 78.7498 69.3466H79.7841V68.0874Z" fill="#0560AB"/>
<path fill-rule="evenodd" clip-rule="evenodd" d="M7.73842 44.9719C9.22249 44.6571 9.94204 43.8026 9.94204 42.4985C9.94204 41.1943 9.22249 40.3848 7.73842 40.025V44.9719ZM5.17502 40.07C3.73592 40.3848 2.9714 41.2392 2.9714 42.5434C2.9714 43.8476 3.69095 44.6571 5.17502 45.0169V40.07ZM5.17502 46.6808C3.64598 46.5459 2.52168 46.1412 1.75716 45.3767C0.992638 44.6571 0.587891 43.6677 0.587891 42.4985C0.587891 41.2842 0.992638 40.3398 1.75716 39.6203C2.52168 38.9007 3.69095 38.451 5.17502 38.3161V37.6865H7.73842V38.361C9.26747 38.496 10.4367 38.9007 11.2013 39.6652C11.9658 40.3848 12.3705 41.3742 12.3705 42.5434C12.3705 43.7577 11.9658 44.7021 11.2013 45.4216C10.4367 46.1412 9.26747 46.5909 7.73842 46.7258V47.985H5.17502V46.6808Z" fill="#0560AB"/>
<path fill-rule="evenodd" clip-rule="evenodd" d="M35.9812 37.6865V47.9401H33.4178V43.7127H29.9549V47.9401H27.4365V37.6865H29.9549V41.689H33.4178V37.6865H35.9812Z" fill="#0560AB"/>
<path fill-rule="evenodd" clip-rule="evenodd" d="M45.7392 44.0725V44.1624C45.5144 45.3766 44.8848 45.9613 43.8954 45.9613C43.2658 45.9613 42.7711 45.7364 42.4563 45.3317C42.0965 44.882 41.9166 44.0725 41.9166 42.8132C41.9166 40.6996 42.5462 39.6652 43.8504 39.6652C44.9747 39.6652 45.5144 40.3398 45.5594 41.6889V41.8239L48.5725 41.644V41.5091C48.2127 38.8557 46.6387 37.5066 43.8954 37.5066C42.3214 37.5066 41.0622 38.0013 40.1178 38.9906C39.2183 39.98 38.7236 41.2392 38.7236 42.8132C38.7236 44.4772 39.2183 45.7814 40.1627 46.6808C41.1071 47.6252 42.3664 48.075 43.8504 48.075C45.0647 48.075 46.144 47.7602 46.9985 47.1305C47.8529 46.5009 48.3926 45.5565 48.5275 44.2973V44.1624L45.7392 44.0725Z" fill="#0560AB"/>
<path fill-rule="evenodd" clip-rule="evenodd" d="M58.4211 37.6865V39.7102H55.1832V47.9401H52.5748V39.7102H49.4268V37.6865H58.4211Z" fill="#0560AB"/>
<path fill-rule="evenodd" clip-rule="evenodd" d="M62.7391 43.9376H65.1226L63.9533 40.3398L62.7391 43.9376ZM65.7072 37.6865L69.215 47.9401H66.4268L65.7522 45.8264H62.1544L61.4349 47.9401H58.5117L62.0645 37.6865H65.7072Z" fill="#0560AB"/>
<path fill-rule="evenodd" clip-rule="evenodd" d="M74.1173 42.2736H75.8712C76.5457 42.2736 77.0404 42.1387 77.3103 41.8689C77.5801 41.599 77.715 41.2842 77.715 40.9245C77.715 40.5197 77.5801 40.1599 77.2653 39.9351C76.9505 39.7102 76.5008 39.5753 75.8712 39.5753H74.1173V42.2736ZM74.2072 44.1175V47.9401H71.4189V37.6865H76.0061C77.0404 37.6865 77.805 37.7764 78.3446 37.9563C78.8843 38.1362 79.379 38.496 79.7837 38.9907C80.1885 39.4854 80.4133 40.115 80.4133 40.8345C80.4133 41.3292 80.3234 41.8239 80.0535 42.3186C79.8287 42.8133 79.5139 43.1731 79.1091 43.4429C78.7044 43.7127 78.2996 43.8926 77.8949 43.9826C77.4901 44.0725 76.9055 44.1175 76.0511 44.1175H74.2072Z" fill="#0560AB"/>
<path fill-rule="evenodd" clip-rule="evenodd" d="M20.8254 37.6865L17.3175 43.263V37.6865H14.7542V47.9401H17.5874L21.7698 41.4641V47.9401H24.2882V37.6865H20.8254Z" fill="#0560AB"/>
<path fill-rule="evenodd" clip-rule="evenodd" d="M7.10929 52.2573L3.60148 57.0693V52.2573H1.03809V62.5109H3.60148V60.1723L5.1755 58.0587L7.4241 62.5109H10.3023L6.92941 55.945L9.62772 52.2573H7.10929Z" fill="#0560AB"/>
<path fill-rule="evenodd" clip-rule="evenodd" d="M32.9235 52.2573V62.5559H30.4051V54.281H26.9423V62.5559H24.4238V52.2573H26.9423H30.4051H32.9235Z" fill="#0560AB"/>
<path fill-rule="evenodd" clip-rule="evenodd" d="M16.1033 58.5084H18.4868L17.3176 54.9106L16.1033 58.5084ZM19.0715 52.2573L22.5793 62.5109H19.791L19.1164 60.3972H15.5187L14.7991 62.5109H11.876L15.4288 52.2573H19.0715Z" fill="#0560AB"/>
<path fill-rule="evenodd" clip-rule="evenodd" d="M61.3904 58.5084H63.774L62.6047 54.9106L61.3904 58.5084ZM64.3586 52.2573L67.8664 62.5109H65.0781L64.4036 60.3972H60.8058L60.0863 62.5109H57.1631L60.7159 52.2573H64.3586Z" fill="#0560AB"/>
<path fill-rule="evenodd" clip-rule="evenodd" d="M56.7131 52.2573V54.281H53.4751V62.5109H50.8668V54.281H47.7188V52.2573H56.7131Z" fill="#0560AB"/>
<path fill-rule="evenodd" clip-rule="evenodd" d="M41.6923 52.2573L38.1395 57.8338V52.2573H35.6211V62.5109H38.4094L42.5917 56.0349V62.5109H45.1551V52.2573H41.6923Z" fill="#0560AB"/>
<path fill-rule="evenodd" clip-rule="evenodd" d="M76.5012 52.2573H72.8584L69.3057 62.5559H72.2288L72.9034 60.4422L73.533 58.5084L74.7473 54.9106L75.9165 58.5084L76.5012 60.4422L77.2207 62.5559H80.009L76.5012 52.2573Z" fill="#0560AB"/>
</svg>
