<svg width="33" height="42" viewBox="0 0 33 42" fill="none" xmlns="http://www.w3.org/2000/svg">
<path d="M20.625 0H4.125C3.03099 0 1.98177 0.434589 1.20819 1.20819C0.43459 1.98177 0 3.03099 0 4.125V37.125C0 38.2189 0.43459 39.2681 1.20819 40.0418C1.98177 40.8154 3.03099 41.25 4.125 41.25H28.875C29.969 41.25 31.0181 40.8154 31.7918 40.0418C32.5654 39.2681 33 38.2189 33 37.125V12.375L20.625 0ZM11.3396 29.2669C10.7023 29.865 9.76181 30.1331 8.66662 30.1331C8.45427 30.1354 8.24202 30.123 8.03137 30.096V33.0371H6.1875V24.9191C7.01962 24.795 7.86043 24.7384 8.70169 24.75C9.8505 24.75 10.6673 24.9686 11.2179 25.4079C11.7418 25.8246 12.0966 26.5072 12.0966 27.3116C12.0945 28.1201 11.8264 28.8028 11.3396 29.2669ZM19.1916 32.0616C18.3253 32.7814 17.0074 33.1237 15.3966 33.1237C14.4313 33.1237 13.7486 33.0619 13.2846 33V24.9212C14.117 24.7997 14.9575 24.7424 15.7987 24.75C17.3601 24.75 18.3748 25.0305 19.1668 25.6286C20.0228 26.2639 20.559 27.2766 20.559 28.7306C20.559 30.3043 19.9836 31.3913 19.1916 32.0616ZM26.8125 26.3381H23.6528V28.2171H26.6062V29.7309H23.6528V33.0392H21.7841V24.8119H26.8125V26.3381ZM20.625 14.4375H18.5625V4.125L28.875 14.4375H20.625Z" fill="#A1C3FF"/>
</svg>
